<?xml version="1.0" encoding="UTF-8" standalone="no"?>
<svg
   xmlns:dc="http://purl.org/dc/elements/1.1/"
   xmlns:cc="http://creativecommons.org/ns#"
   xmlns:rdf="http://www.w3.org/1999/02/22-rdf-syntax-ns#"
   xmlns:svg="http://www.w3.org/2000/svg"
   xmlns="http://www.w3.org/2000/svg"
   xmlns:sodipodi="http://sodipodi.sourceforge.net/DTD/sodipodi-0.dtd"
   xmlns:inkscape="http://www.inkscape.org/namespaces/inkscape"
   style="fill-opacity:1; color-rendering:auto; color-interpolation:auto; text-rendering:auto; stroke:black; stroke-linecap:square; stroke-miterlimit:10; shape-rendering:auto; stroke-opacity:1; fill:black; stroke-dasharray:none; font-weight:normal; stroke-width:1; font-family:'Dialog'; font-style:normal; stroke-linejoin:miter; font-size:12px; stroke-dashoffset:0; image-rendering:auto;"
   width="50"
   height="120"
   version="1.1"
   id="svg846"
   sodipodi:docname="36,21,33,9:2:2024.svg"
   inkscape:version="1.0.2 (e86c8708, 2021-01-15)">
  <metadata
     id="metadata850">
    <rdf:RDF>
      <cc:Work
         rdf:about="">
        <dc:format>image/svg+xml</dc:format>
        <dc:type
           rdf:resource="http://purl.org/dc/dcmitype/StillImage" />
      </cc:Work>
    </rdf:RDF>
  </metadata>
  <sodipodi:namedview
     pagecolor="#ffffff"
     bordercolor="#666666"
     borderopacity="1"
     objecttolerance="10"
     gridtolerance="10"
     guidetolerance="10"
     inkscape:pageopacity="0"
     inkscape:pageshadow="2"
     inkscape:window-width="1438"
     inkscape:window-height="1005"
     id="namedview848"
     showgrid="false"
     inkscape:zoom="3.2049016"
     inkscape:cx="0.59182115"
     inkscape:cy="28.52888"
     inkscape:window-x="0"
     inkscape:window-y="23"
     inkscape:window-maximized="0"
     inkscape:current-layer="g844" />
  <!--Generated by the Batik Graphics2D SVG Generator-->
  <defs
     id="genericDefs" />
  <g
     id="g844"
     transform="translate(49.299486,37.75467)">
    <g
       style="fill:#ffffff;stroke:#ffffff"
       id="g842"
       transform="translate(-49.611508,-38.690736)">
      <path
         style="stroke:none"
         d="m 24.8771,60.5647 c 2.7331,10.6169 -10.9001,54.2146 -8.4785,54.9348 2.4216,0.7203 18.8278,-40.029 23.0082,-50.6135 4.1803,-10.5845 3.1718,-17.3148 2.0737,-12.8936 -1.0981,4.4213 -4.2832,46.2367 -8.6623,39.4212 C 28.4391,84.5982 15.3152,14.1467 15.2059,11.0997 15.0965,8.0527 30.0015,61.5588 32.1622,73.1316 34.3229,84.7044 25.8853,80.5818 28.17,80.5367 30.4546,80.4917 49.5245,69.5922 45.8702,72.8614 42.2159,76.1306 11.2904,111.5653 6.2441,100.152 1.1979,88.7387 15.1868,13.9659 15.5926,4.3817"
         id="path838" />
      <path
         d="m 24.8771,60.5647 c 2.7331,10.6169 -10.9001,54.2146 -8.4785,54.9348 2.4216,0.7203 18.8278,-40.029 23.0082,-50.6135 4.1803,-10.5845 3.1718,-17.3148 2.0737,-12.8936 -1.0981,4.4213 -4.2832,46.2367 -8.6623,39.4212 C 28.4391,84.5982 15.3152,14.1467 15.2059,11.0997 15.0965,8.0527 30.0015,61.5588 32.1622,73.1316 34.3229,84.7044 25.8853,80.5818 28.17,80.5367 30.4546,80.4917 49.5245,69.5922 45.8702,72.8614 42.2159,76.1306 11.2904,111.5653 6.2441,100.152 1.1979,88.7387 15.1868,13.9659 15.5926,4.3817"
         style="fill:none;stroke:#000000"
         id="path840" />
    </g>
  </g>
</svg>
