<?xml version="1.0" encoding="UTF-8" standalone="no"?>
<svg
   xmlns:dc="http://purl.org/dc/elements/1.1/"
   xmlns:cc="http://creativecommons.org/ns#"
   xmlns:rdf="http://www.w3.org/1999/02/22-rdf-syntax-ns#"
   xmlns:svg="http://www.w3.org/2000/svg"
   xmlns="http://www.w3.org/2000/svg"
   xmlns:sodipodi="http://sodipodi.sourceforge.net/DTD/sodipodi-0.dtd"
   xmlns:inkscape="http://www.inkscape.org/namespaces/inkscape"
   style="fill-opacity:1; color-rendering:auto; color-interpolation:auto; text-rendering:auto; stroke:black; stroke-linecap:square; stroke-miterlimit:10; shape-rendering:auto; stroke-opacity:1; fill:black; stroke-dasharray:none; font-weight:normal; stroke-width:1; font-family:'Dialog'; font-style:normal; stroke-linejoin:miter; font-size:12px; stroke-dashoffset:0; image-rendering:auto;"
   width="1600"
   height="900"
   version="1.1"
   id="svg846"
   sodipodi:docname="40,22,56,9:2:2024.svg"
   inkscape:version="1.0.2 (e86c8708, 2021-01-15)">
  <metadata
     id="metadata850">
    <rdf:RDF>
      <cc:Work
         rdf:about="">
        <dc:format>image/svg+xml</dc:format>
        <dc:type
           rdf:resource="http://purl.org/dc/dcmitype/StillImage" />
      </cc:Work>
    </rdf:RDF>
  </metadata>
  <sodipodi:namedview
     pagecolor="#ffffff"
     bordercolor="#666666"
     borderopacity="1"
     objecttolerance="10"
     gridtolerance="10"
     guidetolerance="10"
     inkscape:pageopacity="0"
     inkscape:pageshadow="2"
     inkscape:window-width="1526"
     inkscape:window-height="815"
     id="namedview848"
     showgrid="false"
     inkscape:zoom="0.445"
     inkscape:cx="800"
     inkscape:cy="450"
     inkscape:window-x="0"
     inkscape:window-y="23"
     inkscape:window-maximized="0"
     inkscape:current-layer="svg846" />
  <!--Generated by the Batik Graphics2D SVG Generator-->
  <defs
     id="genericDefs" />
  <path
     d="m 858.12056,573.41354 c 166.84934,-3.66618 98.98125,186.34689 189.50094,227.76809 90.5198,41.42112 385.9738,32.6619 353.6174,20.75877 -32.3564,-11.90322 -565.57834,-92.85474 -547.75586,-92.17793 17.8223,0.6768 565.28966,101.04438 654.68986,96.23874 89.4002,-4.80574 -83.4551,-22.4481 -118.2885,-125.07272 -34.8335,-102.6246 -44.3038,-416.997 -90.7124,-490.67521 -46.4085,-73.6782 -104.7105,-46.01709 -187.7388,48.60598 -83.0283,94.62308 -287.97853,517.77399 -310.4312,519.13251 -22.45257,1.35853 224.7418,-437.76 175.71516,-510.98127 -49.02673,-73.22135 -558.27654,87.14099 -469.87532,71.65352 88.40112,-15.48748 879.87916,-185.93186 1000.28216,-164.57839 120.4028,21.35337 -221.1164,189.09881 -277.8645,292.69876 -56.7484,103.59995 19.2346,282.62852 -62.6254,328.90073 -81.8602,46.27203 -320.21477,51.43009 -428.53525,-51.26809 C 629.77828,641.71883 498.99559,206.64749 516.71069,179.49598 534.42587,152.34439 739.48692,592.09374 844.38967,581.50755 949.29224,570.92145 1179.4502,122.1243 1146.1265,115.97903 1112.8028,109.83367 611.3464,484.65778 644.44779,544.63548 677.54898,604.6132 1377.1961,537.88708 1344.7343,475.8452 1312.2724,413.80325 636.71644,223.01985 449.67623,172.38382 262.63583,121.74779 252.00518,124.66166 222.49219,172.02876 c -29.51299,47.36709 3.63168,208.54399 50.10612,284.55764 46.47434,76.01365 150.09182,112.08637 228.74048,171.52433 78.64857,59.43787 96.0348,241.32925 243.15101,185.103 C 891.60602,756.98739 1353.9582,417.29652 1384.036,290.75295 1414.1137,164.20929 1035.3734,-5.3095213 924.95592,53.951745 814.53829,113.21292 659.8405,526.45996 721.53045,646.32001 c 61.68988,119.86005 543.39135,135.25637 573.56475,126.792 30.1734,-8.46436 -358.00445,-164.60539 -392.52453,-177.57836 -34.52028,-12.97296 207.01183,72.18255 185.40303,99.74036 -21.6089,27.55773 -220.20696,69.52062 -315.05617,65.60584 -94.84921,-3.91489 -269.71333,-15.19651 -254.03936,-89.09503 15.67398,-73.89858 358.74715,-314.65967 348.08311,-354.29643 -10.66421,-39.63677 -364.77594,46.8778 -412.06803,116.47568 -47.2921,69.59789 65.14401,302.74636 128.31567,301.11145 63.17158,-1.6349 258.27182,-296.85593 250.71416,-310.92106 -7.55755,-14.06522 -322.9261,168.28573 -296.05959,226.52972 26.86643,58.244 477.05791,216.93804 457.25811,122.93401 C 975.32175,679.61415 541.93197,165.10612 419.06432,86.659629 296.19666,8.2132247 278.22002,228.60462 257.9155,302.9394 237.61097,377.27428 161.24443,535.3454 297.23726,532.66853 433.22999,529.99174 979.12061,300.29884 1073.8723,286.87851 1168.6239,273.45818 908.66229,487.48206 865.74699,452.14636 822.83161,416.81065 770.81176,74.214544 816.37994,74.864357 c 45.5681,0.649813 270.55596,370.885933 322.77566,381.180703 52.2196,10.29478 -48.1304,-282.80239 -9.4573,-319.41204 38.6727,-36.60958 386.5486,106.40383 241.495,99.75415 C 1226.1397,229.73757 288.31456,54.900709 259.3763,96.735074 230.43804,138.56953 1061.7821,377.96234 1197.5635,487.39372 1333.3451,596.82501 1192.9261,787.71884 1074.0655,753.32313 955.20476,718.92741 603.20733,354.45592 484.39973,281.01955 365.59202,207.58317 281.18601,342.33372 361.21944,312.70498 441.25287,283.07615 862.02544,55.787433 964.60013,103.24692 1067.1748,150.70641 1121.7517,489.55845 976.66728,597.462 831.58272,705.36555 38.769372,766.45161 94.09296,750.66841 149.41646,734.88521 1112.005,605.83977 1308.6082,502.76287 1505.2114,399.68589 1432.1401,87.605778 1273.7125,132.20659 1115.2849,176.80742 544.38321,684.47772 358.04235,770.3678 171.70139,856.25779 58.340976,741.95843 155.66673,647.54676 252.99249,553.1351 827.34414,263.34633 941.9967,203.89809 c 114.6527,-59.44833 -90.19638,99.55821 -98.4146,86.95894 -8.21821,-12.59936 -11.84411,-242.168052 49.10523,-162.55485 60.94934,79.6132 316.79827,524.77055 316.59057,640.23398 -0.2077,115.46343 -333.57715,165.7524 -317.83623,52.54679 15.74093,-113.2057 364.95103,-623.71816 412.28163,-731.780554 47.3305,-108.062402 -54.1742,23.975494 -128.2985,83.406154 -74.1245,59.43066 -215.29428,260.66716 -316.44797,273.178 C 757.82296,458.39738 498.11924,260.06694 568.50191,247.77367 638.88448,235.48041 1234.0007,289.2499 1281.2719,372.12685 1328.5433,455.00371 973.05677,723.51056 852.12973,745.0351 731.20259,766.55965 602.91305,563.52296 555.70946,501.27434 508.50586,439.02562 456.74123,341.51556 568.90817,371.54288 681.07502,401.57011 1209.5092,669.78678 1228.7106,681.43779 1247.9119,693.0888 658.4295,492.3191 684.11583,441.44871 709.80208,390.57822 1266.8997,335.91585 1382.828,376.21508 c 115.9282,40.29932 146.7945,318.1047 -3.1428,307.02939 C 1229.7477,672.16925 604.85971,387.95577 483.2036,309.76333 361.54738,231.57089 484.33378,177.57757 649.74816,214.08984 815.16245,250.6021 1501.9274,547.22929 1475.6893,528.83672 1449.4513,510.44416 709.94138,129.23743 492.32008,103.73446 274.69858,78.231396 36.205067,355.90491 169.9607,375.81862 303.71625,395.73242 1284.1383,263.82148 1294.8538,223.21694 1305.5692,182.61239 293.26104,31.951012 234.25295,132.19148 175.24475,232.43194 834.6108,751.69798 940.80478,824.65974 1046.9987,897.62141 813.11564,573.84649 871.41686,569.96194 929.71808,566.0773 1298.3968,843.20245 1290.6118,801.35226 1282.8265,759.50198 802.58256,363.39771 824.70601,318.86045 846.82944,274.32327 1429.0152,449.20813 1423.3519,534.12867 1417.6887,619.0493 934.10285,859.76038 790.72625,828.38403 647.34957,797.00769 658.08504,346.15445 563.09213,345.87051 468.09921,345.58648 148.17934,791.81331 220.76865,826.67994 293.35797,861.54658 832.58068,607.00305 998.62816,555.07029 1164.6757,503.13754 1328.7922,534.22537 1217.0532,515.08331 1105.3144,495.94116 460.56375,404.27521 328.19491,440.21756 c -132.36886,35.94236 -57.73723,230.95974 94.64516,290.52006 152.38238,59.56034 693.41353,89.58159 819.64913,66.84173 126.2357,-22.73986 57.1147,-206.50165 -62.2349,-203.28106 -119.3497,3.2205 -652.98899,237.15978 -653.8625,222.60413 -0.8735,-14.55584 683.1621,-266.40877 648.6213,-309.93887 -34.5408,-43.5302 -710.41471,0.0586 -855.86626,48.75796 -145.45157,48.69925 -78.63591,215.16557 -16.84305,243.4379 61.79277,28.27232 395.45462,-12.74328 387.59984,-73.80375 C 682.04885,664.2951 174.34135,448.10551 255.17484,432.79622 336.00823,417.48675 1158.0396,685.98833 1174.9044,633.4993 1191.7693,581.01017 476.79961,193.54978 356.36328,117.86174 235.92697,42.173616 443.81305,185.39503 452.2862,179.37072 460.75927,173.3465 444.90739,41.297705 407.20205,81.716142 369.49661,122.13458 253.68543,362.83431 226.05372,421.88152 198.422,480.92864 266.91551,394.72228 241.41185,435.99905 215.9081,477.27581 25.549747,726.62548 73.031304,669.54186 120.51277,612.45816 430.65111,171.03883 526.30083,93.497173 621.95056,15.955514 518.35325,142.66875 646.92946,204.29183 775.50568,265.91482 1335.1324,384.37669 1297.7583,463.2353 1260.3841,542.09381 589.80375,623.64335 422.68454,677.44318 255.56523,731.2431 287.27983,841.89781 295.04244,786.03435 c 7.76261,-55.86355 74.74507,-440.93593 174.21768,-443.77218 99.47262,-2.83634 457.64623,360.37833 422.6178,426.75414 -35.02841,66.37572 -554.72473,-19.4035 -632.7883,-28.49992 -78.06357,-9.09643 17.96087,-28.17502 164.40689,-26.07868 146.44593,2.09624 753.84719,58.08076 714.26889,38.65651 C 1098.1869,733.66979 209.69488,601.95513 186.02544,597.89177 162.35601,593.82843 897.09641,725.49833 995.7486,728.71382 1094.4009,731.92939 926.85214,680.37938 777.93884,617.1846 629.02555,553.98982 126.79551,404.4737 102.26881,349.5454 77.742099,294.6171 443.06591,220.5645 630.77853,287.61464 818.49112,354.66479 1186.1733,787.03887 1228.5443,751.84601 1270.9152,716.65315 1066.3345,101.29335 885.00385,76.457244 703.67304,51.621138 155.96451,513.57103 140.5596,602.82929 c -15.405,89.25816 559.87325,-7.63364 652.01436,9.17737 92.14111,16.81111 -29.69209,104.3236 -99.16749,91.68873 C 623.93105,691.06051 356.8983,513.255 375.7214,536.19723 394.5444,559.13937 858.47739,792.96068 806.34475,841.34839 754.212,889.73601 16.892172,850.58792 62.925308,826.52312 108.95835,802.45831 854.87259,806.24783 1082.543,696.95938 c 227.6706,-109.28845 404.6506,-440.74086 346.4055,-526.16686 -58.245,-85.425925 -603.07902,-0.90835 -695.87574,13.61117 -92.79681,14.51944 133.60176,-19.18593 139.0949,73.50565 5.49305,92.69157 -22.90523,430.18851 -106.13648,482.6438 C 682.79993,793.00842 467.93642,636.55593 372.77999,572.64092 277.62347,508.72583 58.473218,321.56159 195.09231,357.06264 c 136.619,35.50098 840.68049,427.51992 997.40199,428.58404 156.7215,1.06421 51.6284,-409.41068 -57.0732,-422.19904 -108.7017,-12.78845 -572.2357,288.30365 -595.13636,345.46849 -22.90084,57.16495 463.92456,17.60817 457.7318,-2.47925 -6.19271,-20.08751 -435.4001,-63.0602 -494.88773,-118.04554 -59.48762,-54.98544 4.13589,-145.12928 137.96178,-211.86691 133.82587,-66.73763 580.19221,-166.4161 664.99381,-188.55907 84.8014,-22.14297 -76.14,43.9866 -156.185,55.70118 -80.045,11.71466 -338.35323,39.88659 -324.08549,14.58643 C 840.08166,232.95271 1260.4536,21.333 1235.5058,91.865079 1210.558,162.39716 671.14345,652.63116 676.1268,681.44535 681.11015,710.25954 1292.7877,369.00525 1265.4057,264.75039 1238.0235,160.49554 704.37111,19.835933 511.83436,55.916041 319.29751,91.99615 139.2569,351.20905 110.18475,481.23104 81.112689,611.25304 270.88862,795.58649 337.40162,836.04791 403.91463,876.50942 429.3684,791.67547 509.2629,723.99969 589.1574,656.32399 887.52085,468.31917 816.7685,429.99337 746.01617,391.66749 180.60336,554.06226 84.748956,494.04455 -11.105452,434.02666 7.8987619,137.14498 241.64176,69.886499 475.38476,2.628011 1432.3811,40.869682 1487.2068,90.493456 1542.0325,140.11715 618.66644,338.8444 570.59594,367.62871 522.52526,396.41301 1061.9693,298.71843 1198.7832,263.199 c 136.8136,-35.51944 141.8561,-193.101698 192.6946,-108.68689 50.8387,84.41471 192.9056,577.68742 112.3362,615.17547 -80.5696,37.48795 -515.3593,-382.97817 -595.75322,-390.24752 -80.39394,-7.26943 141.05432,352.8508 113.38952,346.63108 -27.66482,-6.21991 -282.2574,-363.68595 -279.37836,-383.95025 2.87905,-20.2642 244.39607,252.06382 296.65216,262.36467 52.2561,10.30083 174.1422,-185.74049 16.8843,-200.55935 C 898.35041,389.10735 201.06572,475.01492 95.176568,515.57225 -10.712672,556.1295 304.81298,710.25532 420.27302,647.26994 535.73305,584.28456 783.30498,221.07357 787.93662,137.66021 792.56828,54.246851 476.01423,61.894377 448.06265,146.78986 420.11106,231.68526 618.52952,640.36005 620.22711,647.03285 621.9246,653.70566 494.58357,232.62569 458.24779,186.82669 421.912,141.0276 248.58562,366.63939 402.21228,372.23841 555.83895,377.83742 1285.9369,160.8375 1380.0076,220.42077 c 94.0706,59.58318 -343.4738,456.93424 -413.37186,509.31708 -69.89809,52.38277 -22.02448,-164.17419 -6.01642,-195.0201 16.00815,-30.846 193.10148,74.5418 102.06508,9.9441 C 971.64788,480.06415 437.43384,150.4208 414.40048,147.13138 391.36704,143.84196 885.18416,458.52503 924.48382,524.92536 963.78338,591.32569 778.75999,603.7634 650.1978,545.53355 521.63561,487.30362 79.862726,238.80296 153.11077,175.54603 226.35873,112.28902 1078.3717,185.89996 1089.6859,165.99162 1101.0002,146.08326 224.37392,31.62549 220.99618,56.095813 217.61834,80.566134 960.49441,192.4235 1069.419,312.81337 1178.3436,433.20323 973.30264,721.84867 874.54342,778.43501 775.78428,835.02124 391.02817,771.97493 476.86408,652.33079 562.69998,532.68655 1340.4038,42.47804 1389.5591,60.56996 1438.7144,78.661791 941.27836,708.76186 771.79541,760.88187 602.31237,813.00187 483.76355,478.99837 372.66041,373.28969 261.55717,267.58094 136.14153,118.59955 105.17591,126.62947 c -30.965624,8.02984 65.74331,280.34968 81.69076,294.83941 15.94736,14.48964 26.36727,-224.53554 13.99363,-207.90139 -12.37372,16.63415 -200.11714381,257.23894 -88.23578,307.70637 111.88137,50.46733 720.46257,35.2215 759.52379,-4.90209 C 911.20953,476.24817 387.20832,317.36584 346.99205,280.53201 306.77577,243.69819 514.87013,260.07713 630.85079,295.36888 746.83135,330.66056 1026.5205,517.0556 1042.8755,492.28209 1059.2307,467.50857 652.07,92.705916 728.98108,146.72797 805.89208,200.74994 1605.136,782.36245 1504.3415,816.41409 1403.5471,850.46573 141.37937,459.01872 124.21405,351.03772 107.04866,243.05672 1396.2612,217.874 1401.3492,168.52775 1406.4373,119.1815 229.67338,52.999793 154.74224,54.960134 c -74.931329,1.96034 592.088,117.445216 797.01949,125.329836 204.93147,7.8847 355.85377,-163.430765 432.56907,-78.02199 76.7152,85.40886 58.6483,488.75408 27.7226,590.47491 -30.9258,101.72075 -8.7633,61.04606 -213.2777,19.8499 C 994.26125,671.39663 258.23565,480.58167 184.96623,445.56595 c -73.26951,-35.01582 411.97011,8.36476 574.19262,56.93215 162.22243,48.56739 392.76225,230.00638 399.14205,234.4721 6.3796,4.4657 -301.27944,-212.69624 -360.86391,-207.67777 -59.58447,5.01848 42.95784,275.71943 3.35674,237.78851 C 761.19263,729.1501 512.0031,395.59107 559.83021,301.70721 607.65732,207.82325 1134.4114,189.13488 1087.7561,203.77756 1041.1008,218.42017 295.61606,398.54978 279.89871,389.56298 264.18128,380.57627 877.39202,110.10178 993.45177,149.85704 1109.5113,189.61222 952.4233,612.39443 976.2567,628.09403 c 23.8333,15.69969 117.2965,-411.58541 160.195,-384.0392 42.8986,27.54621 197.3419,577.25853 97.1962,549.31647 C 1133.5022,765.42924 718.15491,124.17958 535.57798,76.402565 353.00086,28.625467 208.81595,405.98869 138.18559,506.70887 67.555125,607.42914 55.392053,670.26509 111.79521,680.72389 168.19838,691.18262 415.55158,614.56364 476.60465,569.46157 537.65771,524.35932 540.22275,460.78627 478.1135,410.11086 416.00415,359.43553 -17.364441,243.33029 103.94906,265.40926 225.26265,287.48832 1180.9112,492.67046 1205.9946,542.58495 1231.078,592.49943 275.50137,635.51537 254.44935,564.89609 233.39723,494.27689 1097.9115,106.5308 1079.6821,118.86969 1061.4525,131.20859 73.718463,578.52484 145.07231,638.92935 216.42597,699.33394 1408.1539,523.92673 1507.8044,481.29662 1607.4549,438.66651 918.04783,335.25707 742.97536,383.14853 c -175.07257,47.89156 -270.47532,337.46398 -285.6064,385.4969 -15.13106,48.03282 183.26172,-105.36135 194.8198,-97.30005 11.55808,8.0613 -87.22646,224.5032 -125.47168,145.66771 -38.24531,-78.83557 -118.4494,-521.33942 -103.9999,-618.68105 14.44951,-97.34171 185.35814,22.4146 190.69675,34.63078 5.33862,12.21617 -237.06407,64.90819 -158.66475,38.66617 C 533.1483,245.38697 1033.8157,15.226233 1083.8092,75.510566 1133.8027,135.7949 909.73048,618.39791 754.71015,633.33499 599.68983,648.272 47.607522,215.4161 153.68715,165.13302 259.76669,114.84994 1270.0369,221.76883 1391.1876,331.63642 1512.3383,441.504 1034.4195,798.54079 880.59129,824.33826 726.76296,850.13573 400.41538,528.9009 468.2176,486.42111 c 67.80223,-42.47979 875.9169,118.54565 819.187,83.03826 -56.73,-35.50748 -1110.80359,-240.32032 -1159.56675,-296.08268 -48.763252,-55.76228 718.32562,-25.93083 866.9873,-38.49142 148.66175,-12.56051 84.60105,-40.10179 24.98265,-36.8718 -59.61831,3.22998 -396.73531,-38.19342 -382.69271,56.25183 14.04261,94.44516 501.16081,425.03098 466.94841,510.41954 -34.2124,85.38856 -611.94665,16.6905 -672.22314,1.91164 -60.27658,-14.77886 244.48655,25.06581 310.56385,-90.58479 C 808.48152,560.36111 933.32921,112.26264 828.30412,72.692775 723.27893,33.122821 200.17827,423.76996 112.2532,438.59223 c -87.924988,14.82219 27.09422,-237.10184 188.50083,-276.9662 161.40661,-39.86444 610.57903,-22.06455 779.93897,37.7798 169.3599,59.84436 179.9675,323.56121 236.2204,321.28625 56.2529,-2.27496 271.3377,-365.33852 101.2972,-334.93602 C 1248.1699,216.15857 417.71339,700.3353 296.66987,703.10729 175.62635,705.87928 689.005,249.35337 691.94952,202.38827 c 2.94462,-46.96517 -400.64358,179.54477 -377.61243,218.928 23.03115,39.38315 363.9262,-2.86992 515.79915,17.37116 151.87296,20.24109 306.83236,81.26702 395.43876,104.07518 88.6063,22.80817 195.8877,71.0568 136.1995,32.7739 -59.6882,-38.28289 -337.6431,-210.79716 -494.32891,-262.47146 -156.68591,-51.67431 -498.73077,-34.5514 -445.78624,-47.57457 52.94453,-13.02307 596.23695,-44.659 763.45335,-30.56407 167.2165,14.09485 258.5395,39.40442 239.845,115.13325 -18.6948,75.72882 -316.7795,306.08244 -352.0131,339.23971 -35.2334,33.15727 114.9113,-41.65872 140.6121,-140.29593 25.7008,-98.63721 -13.7284,-491.538818 13.5926,-451.527304 27.3209,40.011514 243.4888,679.023224 150.3333,691.596394 -93.1558,12.57316 -716.07236,-614.59185 -709.26744,-616.15749 6.80492,-1.56572 612.73924,605.09677 750.09674,606.76333 137.3576,1.66655 243.9203,-577.38574 74.0484,-596.76401 C 1322.4886,163.53609 530.75906,673.29438 399.08049,663.40863 267.40183,653.5229 727.24397,169.69112 702.28836,123.60009 677.33274,77.508971 114.15529,325.42812 249.34687,386.86202 384.53846,448.29601 1456.9244,426.26626 1513.4377,492.2035 1569.951,558.14082 773.84807,769.50816 588.42695,782.48544 403.00573,795.46262 268.46362,590.59421 400.9105,570.06716 533.3574,549.54003 1242.0534,709.84479 1383.108,659.32277 1524.1628,608.80077 1337.2579,350.05368 1247.2388,266.93508 1157.2196,183.81656 1042.1128,117.73806 842.99298,160.61141 643.87315,203.48474 27.528412,480.41051 52.520072,524.17533 77.511639,567.94006 771.56348,397.9549 992.94258,423.20014 1214.3216,448.44545 1342.3494,734.72627 1380.794,675.64679 1419.2386,616.56714 1327.5095,129.67556 1223.6103,68.722954 1119.7111,7.770346 903.82439,252.59462 757.39909,309.93088 610.97361,367.26723 379.30457,390.83553 345.05777,412.7407 c -34.24681,21.90518 231.50966,72.05209 206.86044,28.62133 -24.64923,-43.43077 -444.23027,-332.47171 -354.7559,-289.20594 89.47438,43.26577 718.20521,548.8801 891.60209,548.8008 173.3969,-0.0794 173.5841,-540.92981 148.7794,-549.27691 -24.8046,-8.34709 -260.51346,496.99296 -297.60684,499.19417 -37.09328,2.2013 114.94124,-417.58616 75.04684,-485.98656 -39.89462,-68.400415 -377.71271,53.3856 -314.41393,75.58386 63.29867,22.19826 712.83683,49.35275 694.20633,57.60561 -18.6306,8.25285 -817.08508,20.77425 -805.99012,-8.08856 11.09496,-28.86281 825.88522,-151.16369 872.55962,-165.08834 46.6742,-13.92484 -495.33935,27.88465 -592.51369,81.53977 -97.17453,53.65514 -81.38363,260.11924 9.46644,240.39084 C 969.14851,427.10226 1420.286,38.873563 1413.9324,88.069227 1407.5787,137.26481 981.88318,643.55804 840.17675,742.00458 698.47033,840.45112 582.69638,687.42685 563.69372,678.74816 c -19.00265,-8.67876 95.72374,28.43163 162.46692,11.1838 66.74319,-17.24783 237.36349,-83.53626 237.99232,-114.67078 0.62883,-31.13459 -147.07513,-54.10697 -234.21942,-72.13665 -87.14418,-18.02968 -270.37636,-24.66389 -288.646,-36.0416 -18.26974,-11.3778 25.3771,-8.23863 179.02788,-32.22483 153.65078,-23.98631 632.88618,-144.57352 742.87668,-111.69264 109.9907,32.88089 39.0718,335.71418 -82.9329,308.97786 -122.0049,-26.73631 -641.84801,-398.2435 -649.09615,-469.39603 -7.24814,-71.152615 588.95635,43.24151 605.60715,42.48049 16.6508,-0.76102 -533.81835,-44.05307 -505.70261,-47.04667 28.11574,-2.99361 649.16721,-0.77877 674.39681,29.08494 25.2297,29.86363 -421.14759,54.62388 -523.01907,150.09694 -101.87157,95.47305 -68.6539,430.88167 -88.21019,422.74134 -19.55629,-8.14025 0.53776,-476.71716 -29.12773,-471.58292 -29.66558,5.13416 -246.46419,522.5827 -148.86542,502.38831 97.59866,-20.1945 602.32871,-625.25444 734.45771,-623.55501 132.1293,1.69943 195.2374,546.46703 58.3173,633.75141 C 1272.0969,888.3905 713.81094,707.2684 529.17951,691.06121 344.54797,674.85386 365.70142,701.73303 301.22797,703.86259 236.75443,705.99216 91.532232,687.53137 142.33844,703.83823 193.14463,720.14518 580.03679,908.43167 606.0651,801.70388 632.09333,694.9761 185.24877,166.79412 298.50804,63.471791 411.76721,-39.850718 1098.241,52.0336 1285.6202,181.76927 c 187.3793,129.73577 173.6118,561.51832 137.1635,660.11694 -36.4485,98.59859 -237.3577,-66.13415 -355.8541,-68.52533 -118.49646,-2.39117 -387.11399,97.07729 -355.12482,54.17801 31.98906,-42.89928 609.92642,-261.39047 547.05952,-311.57343 -62.8668,-50.18296 -956.02146,7.02558 -924.26083,10.47569 31.76063,3.45003 977.64563,-4.19908 1114.82433,10.2248 137.1788,14.4238 -279.1141,120.31506 -291.7516,76.31817 -12.6375,-43.99699 300.365,-357.35089 215.9261,-340.29963 -84.439,17.05136 -728.37547,438.72331 -722.55979,442.60723 5.8156,3.88385 704.57169,-409.97283 757.45309,-419.30387 52.8815,-9.33104 -331.7862,341.64952 -440.16484,363.31726 C 859.95213,680.97276 876.83737,514.02736 758.22362,425.99393 639.6097,337.96058 271.76836,112.48847 256.64738,131.10485 241.5263,149.72123 574.22121,501.54711 667.49747,537.69219 760.77372,573.83734 776.95171,303.54834 816.30437,347.97528 855.65705,392.40231 1017.8169,851.73749 903.61355,804.25409 789.41026,756.77078 188.79361,59.461005 131.08436,63.075416 73.375021,66.689738 337.92279,819.47477 557.35752,825.94038 776.79223,832.40607 1471.963,229.52141 1447.6927,101.86914 1423.4225,-25.783123 466.95149,64.552527 411.73558,60.026602 356.51965,55.500678 1073.5615,64.520353 1116.3968,74.713508 1159.232,84.90675 676.3235,64.472268 668.74725,121.18588 661.17089,177.8995 1143.1679,344.87338 1070.9389,414.9951 998.70979,485.11683 404.09108,493.2081 235.37259,541.91615 66.654014,590.62428 -55.068496,720.00252 58.627469,707.2437 172.32353,694.48469 701.72748,505.42402 917.54877,465.36248 c 215.82123,-40.06153 529.25423,7.11569 436.00653,1.51184 -93.2478,-5.60393 -934.17615,-76.60632 -995.49342,-35.1351 -61.31727,41.47113 446.86224,324.57831 627.58953,283.96216 180.72729,-40.61615 447.54669,-534.43617 456.77439,-527.6592 9.2277,6.77698 -248.7477,548.32366 -401.4087,568.32088 C 888.3562,776.36029 665.54154,307.9911 526.46012,308.0253 387.37861,308.05959 133.85088,769.5623 206.52833,756.56851 279.20578,743.5747 971.52756,279.59298 962.52462,230.06275 953.52157,180.5325 95.919301,482.54966 152.51037,459.38697 209.10135,436.22435 1190.6953,50.834628 1302.0706,91.086657 1413.4459,131.33859 930.40138,700.7634 820.76152,700.89887 711.12165,701.03425 615.6005,70.98385 644.23118,91.899188 672.86185,112.81462 1026.6286,800.17025 992.54548,826.39099 958.46228,852.61182 413.38932,320.62959 439.73182,249.22415 c 26.3425,-71.40545 748.44068,62.24028 710.86838,148.73427 -37.5723,86.49409 -916.90162,405.0392 -936.3021,370.22971 -19.40058,-34.8094 728.44151,-492.97559 819.8988,-579.08631 91.4572,-86.1108 -305.27579,-20.84561 -271.15518,62.42164 34.12052,83.26726 462.17948,442.42965 475.87838,437.18192 C 1252.6189,683.45755 940.49775,324.97767 845.23439,220.03687 749.97102,115.09608 599.30328,77.922401 667.33982,59.060586 735.37626,40.198683 1316.5082,77.359704 1253.4534,106.86555 1190.3986,136.3714 323.12847,232.83438 289.01144,236.09585 254.89431,239.3573 1015.4732,152.04067 1048.7509,126.4344 1082.0285,100.82806 617.91417,25.68144 488.67711,82.458171 359.44005,139.23482 284.99597,375.90784 273.3282,467.09435 c -11.66786,91.18651 119.7311,105.606 145.34196,162.48269 25.61096,56.87667 -107.03594,200.23347 8.32341,178.77724 C 542.353,786.89805 1079.1454,572.28621 1110.8264,500.83955 1142.5075,429.39279 711.58137,333.80914 617.08037,379.67398 522.57928,425.53883 624.35529,806.93369 543.81994,776.02853 463.28451,745.12328 48.446639,195.49649 133.86785,194.24284 c 85.42111,-1.25374 774.92631,498.5084 922.47885,574.26352 147.5525,75.7552 -15.3456,-72.34325 -37.1641,-119.73285 C 997.36411,601.38382 973.57373,530.90678 925.43536,484.16848 877.29691,437.43019 837.38877,320.66431 730.35209,368.34357 623.31543,416.02274 230.10854,816.28144 283.2152,770.2435 336.32187,724.20548 1077.6059,93.017197 1048.9918,92.115791 1020.3778,91.214475 148.94711,716.69016 111.5311,764.83516 74.115003,812.98015 670.43621,389.26989 824.49535,380.98574 978.55451,372.70151 1007.0177,763.65685 1035.8858,715.13007 1064.7539,666.60329 945.53117,172.97719 997.70334,89.825358 1049.8754,6.6735224 1380.9883,153.44869 1348.9183,216.21914"
     style="fill:none;stroke:#000000;stroke-width:1"
     id="path840" />
</svg>
